<svg xmlns="http://www.w3.org/2000/svg" xmlns:xlink="http://www.w3.org/1999/xlink" viewBox="0,0,256,256" width="48px" height="48px"><g transform="translate(25.6,25.6) scale(0.8,0.8)"><g fill="none" fill-rule="nonzero" stroke="#0078d4" stroke-width="10.66667" stroke-linecap="butt" stroke-linejoin="miter" stroke-miterlimit="10" stroke-dasharray="" stroke-dashoffset="0" font-family="none" font-weight="none" font-size="none" text-anchor="none" style="mix-blend-mode: normal"><path d="M34.60287,281.11005c-32.97853,0 -59.71292,-26.73438 -59.71292,-59.71292v-186.79426c0,-32.97853 26.73438,-59.71292 59.71292,-59.71292h186.79426c32.97853,0 59.71292,26.73438 59.71292,59.71292v186.79426c0,32.97853 -26.73438,59.71292 -59.71292,59.71292z" id="shape"></path></g><g fill="#0078d4" fill-rule="nonzero" stroke="none" stroke-width="1" stroke-linecap="butt" stroke-linejoin="miter" stroke-miterlimit="10" stroke-dasharray="" stroke-dashoffset="0" font-family="none" font-weight="none" font-size="none" text-anchor="none" style="mix-blend-mode: normal"><g transform="scale(5.33333,5.33333)"><path d="M8.421,14h0.052v0c2.79,0 4.527,-2 4.527,-4.5c-0.052,-2.555 -1.737,-4.5 -4.474,-4.5c-2.737,0 -4.526,1.945 -4.526,4.5c0,2.5 1.736,4.5 4.421,4.5zM4,17h9v26h-9zM44,26.5c0,-5.247 -4.253,-9.5 -9.5,-9.5c-3.053,0 -5.762,1.446 -7.5,3.684v-3.684h-9v26h9v-15v0c0,-2.209 1.791,-4 4,-4c2.209,0 4,1.791 4,4v15h9c0,0 0,-15.045 0,-16.5z"></path></g></g></g></svg>